<svg xmlns="http://www.w3.org/2000/svg" xmlns:xlink="http://www.w3.org/1999/xlink" fill="none" version="1.1" width="128" height="128.00001525878906" viewBox="0 0 128 128.00001525878906"><defs><clipPath id="master_svg0_678_03885"><rect x="0" y="0" width="128" height="128.00001525878906" rx="0"/></clipPath></defs><g clip-path="url(#master_svg0_678_03885)"><rect x="0" y="0" width="128" height="128.00001525878906" rx="0" fill="#FFFFFF" fill-opacity="1"/><rect x="0" y="0" width="128" height="128.00001525878906" rx="0" fill="#FFFFFF" fill-opacity="1"/><g><path d="M25.33333396911621,63.666669969116214L34.72581956911621,63.666669969116214C42.77000196911621,63.666669969116214,50.03132096911621,58.84726496911621,53.15565896911621,51.434613969116214L55.75129296911621,45.27634596911621Q63.802197969116214,25.24174736911621,79.06320396911622,23.80527546911621Q76.3768789691162,23.33333396911621,73.49572896911621,23.33333396911621L52.067735969116214,23.33333396911621C46.16866896911621,23.33333396911621,40.84369996911621,26.867562769116212,38.55251796911621,32.30350586911621L25.33333396911621,63.666669969116214ZM86.41943596911621,26.154357669116212Q68.12003096911621,22.968491079116212,58.76242596911621,43.33333396911621L73.49572896911621,43.33333396911621Q77.68517096911621,43.33333396911621,80.65938396911622,46.33149296911621Q83.66667796911621,49.36299696911621,83.66667796911621,53.666657969116216Q83.66667796911621,57.97033496911621,80.65938396911622,61.00184396911621Q77.68517096911621,64.00000196911621,73.49573696911621,64.00000196911621L70.66666596911621,64.00000196911621L60.38462296911621,64.00000596911622L56.40698096911621,64.00000596911622C51.312331969116215,64.00000596911622,46.71349696911621,67.05229396911622,44.73474896911621,71.74697296911621L30.99999806911621,104.3333419691162L45.25968396911621,104.3333419691162C50.35433196911621,104.3333419691162,54.95316696911621,101.28105696911621,56.931916969116216,96.5863699691162L62.23691396911621,84.00000196911621L73.49573696911621,84.00000196911621Q86.01646196911622,84.00000196911621,94.85811396911622,75.0871639691162Q103.66667796911621,66.20767796911622,103.66667796911621,53.666657969116216Q103.66667796911621,41.12564996911621,94.8581069691162,32.24616626911621Q90.99072096911621,28.347645769116212,86.41943596911621,26.154357669116212Z" fill-rule="evenodd" fill="#E43333" fill-opacity="1"/></g></g></svg>